<svg id="Layer_1" xmlns="http://www.w3.org/2000/svg" viewBox="0 0 132 69"><style>.st0{fill:#363636}</style><path class="st0" d="M120.5 5117.4c-55.4-4.9-102.1-15.9-114.8-26.7-7.2-6.2-7.2-6.2-2.3-11.6 6.4-7.2 37.1-16.5 72.5-22.4 40-6.7 125.1-6.9 137.2-.5 12.1 6.7 16.2 14.1 16.2 29.8 0 16.2-6.2 24.2-22.2 28.5-14.4 4-57.7 5.5-86.6 2.9zM257.7 5115.1c-1.3-2.8-2.6-21.1-2.6-41.1 0-40.6 1.6-37.8-21.9-39.3l-10.3-.8-1.3-25.4-1.3-25.4-11.9-2.8c-25.8-6.7-40-26-37.9-52.9 1.3-19.3 10.3-33.4 25.8-40.9 11.1-5.1 14.7-5.4 112.5-5.4 55.4 0 101.4-.8 101.9-1.8.5-1.3-11.1-94.1-25.8-206.4-14.4-112.3-26.8-210-27.1-216.7-.5-16.2 8.3-26.2 23.5-26.2 12.4 0 20.1 6.4 23.2 19 1.3 5.1 15 103.3 30.2 218.2 15.2 114.6 28.6 208.7 29.4 208.7 1 0 10.8-14.1 21.9-31.4 29.4-46.3 24-43.2 76.4-43.2H606V4745l-51.3-.8c-47.2-.8-52.1-1.3-58.8-6.2-15.7-11.6-16.2-14.1-16.2-109.8 0-95.3.3-97.9 15.2-110.5l8.5-7H817l8.5 7c15 12.6 15.2 15.2 15.2 110.5 0 95.6-.5 98.2-16.2 109.8-6.7 4.9-11.6 5.4-58.8 6.2l-51.3.8v56.3H758c52.3 0 46.9-3.1 76.3 43.2 11.1 17.2 20.9 31.4 21.9 31.4.8 0 14.2-94.1 29.4-208.7 15.2-114.9 28.9-213.1 30.2-218.2 3.1-12.6 10.8-19 23.2-19 15.2 0 24 10 23.5 26.2-.3 6.7-12.6 104.4-27.1 216.7-14.7 112.3-26.3 205.1-25.8 206.4.5 1 46.4 1.8 101.9 1.8 97.8 0 101.4.2 112.4 5.4 15.5 7.5 24.5 21.6 25.8 40.9 2.1 27-12.1 46.3-37.9 52.9l-11.9 2.8-1.3 25.4-1.3 25.4-10.3.8c-23.5 1.5-21.9-1.3-21.9 39.3 0 20-1.3 38.3-2.6 41.1-2.1 3.6-5.4 4.9-13.7 4.9-6.2 0-12.4-1.3-14.2-3.1-2.1-2.1-3.1-14.7-3.1-39.3 0-24.7-1-37.3-3.1-39.3-1.8-1.8-9-3.1-16.5-3.1-16.3 0-16.5-.5-16.5-31.1v-22.9H324.8v22.9c0 30.6-.2 31.1-16.5 31.1-7.5 0-14.7 1.3-16.5 3.1-2.1 2.1-3.1 14.6-3.1 39.3 0 24.7-1 37.3-3.1 39.3-1.8 1.8-8 3.1-14.2 3.1-8.2 0-11.6-1.3-13.7-4.9zm428.5-401.2c28.9-9 53.9-33.9 61.7-61.7 4.4-15.4 3.1-42.2-2.8-57.8-7-18.8-26.8-40.1-45.7-49.4-12.9-6.4-17.5-7.2-39.2-7.2-21.7 0-26.3.8-39.2 7.2-18.8 9.3-38.7 30.6-45.7 49.4-5.9 15.7-7.2 42.4-2.8 57.8 7.5 27.2 32.5 52.7 60.6 61.7 20.1 6.4 32.9 6.4 53.1 0z" transform="matrix(.1 0 0 -.1 0 512)"/><path class="st0" d="M637.9 4675.6c-20.4-9.3-35.1-36.5-30.7-57.3 7.7-36.8 48.2-55.5 80-37 19.9 11.6 29.9 35.5 24.5 57.8-5.7 23.9-27.3 41.4-51.6 41.4-6.4 0-16.2-2.3-22.2-4.9zM360.9 5118.5c-39.2-6.7-45.1-11.3-45.1-34.4 0-18.2 4.6-24.2 22.7-29.6 15.5-4.6 71.7-5.1 105-1.3 68.6 8.2 113.2 25.4 97 37.5-12.7 9-49 18.8-90.5 23.9-24.8 3.1-80 5.4-89.1 3.9zM894.8 5117.4c-63.2-5.9-118.6-20.8-118.6-31.9 0-17.2 78.4-34.7 156.3-35 58 0 72 6.4 72 33.4 0 18.2-6.2 26.2-23.7 30.8-16.6 4.3-56.8 5.3-86 2.7zM1127.8 5117.2c-17.8-2.3-30.2-7.7-34.3-14.9-3.9-7.7-3.1-29 1.5-35.7 9.3-13.1 16.5-14.7 70.7-14.7 36.6 0 58 1.3 78.7 4.9 35.3 5.9 66 15.2 72.5 22.4 4.9 5.4 4.9 5.4-2.3 11.6-13.4 11.3-59.6 21.9-119.2 26.7-34.9 2.8-44.9 2.8-67.6-.3z" transform="matrix(.1 0 0 -.1 0 512)"/></svg>