<svg id="Layer_1" xmlns="http://www.w3.org/2000/svg" viewBox="0 0 71 87"><style>.st0{fill:#363636}</style><path class="st0" d="M53.3 1.5C53.3.8 52.8 0 52 0H9c-.7 0-1.3.8-1.3 1.5V5h45.7l-.1-3.5zM54.2 81.8h-9.6V71.4h-7v2.5H18.8c-.5-1.3-1.8-2.1-3.2-2.1h-12c-1.9 0-3.6 1.6-3.6 3.5v3c0 1.9 1.6 3.5 3.6 3.5h12c1.5 0 2.8-.9 3.3-2.3h18.8v2.3h-9.5c-.5 0-1 .4-1 1V86c0 .5.5 1 1 1h26.1c.5 0 .9-.5.9-1v-3.2c-.1-.6-.5-1-1-1zM60.7 12.4c-.9-2.9-3.6-5.1-6.8-5.1H7.1c-3.9 0-7.1 3.1-7.1 7v46.9c0 3.9 3.2 7.1 7.1 7.1h46.7c3.9 0 7.1-3.2 7.1-7.1V50.9c6.1-4.2 10-11.2 10-19.2.1-8-4-15.1-10.2-19.3zM12.2 62.2c-3.3 0-5.9-2.7-5.9-5.9 0-3.3 2.6-5.9 5.9-5.9s5.9 2.7 5.9 5.9-2.6 5.9-5.9 5.9zm6-32.7c0 .8-.6 1.4-1.4 1.4h-9c-.8 0-1.4-.6-1.4-1.4V15.4c0-.8.6-1.4 1.4-1.4h8.9c.8 0 1.4.6 1.4 1.4l.1 14.1zm29.6 22.4c-11.1 0-20.1-9-20.1-20.1s9-20.1 20.1-20.1 20.1 9 20.1 20.1-9.1 20.1-20.1 20.1z"/><ellipse class="st0" cx="47.8" cy="31.7" rx="12.2" ry="12.2"/><circle class="st0" cx="31.6" cy="31.7" r="1.4"/><circle class="st0" cx="64" cy="31.7" r="1.4"/><circle class="st0" cx="39.1" cy="18" r="1.4"/><ellipse class="st0" cx="56.4" cy="45.5" rx="1.4" ry="1.4"/><circle class="st0" cx="55.7" cy="17.6" r="1.4"/><circle class="st0" cx="39.8" cy="45.9" r="1.4"/></svg>