<svg id="Layer_1" xmlns="http://www.w3.org/2000/svg" viewBox="0 0 97 55"><style>.st0{fill:#363636}</style><path class="st0" d="M84.1 32.6V20c0-1.3 1-2.4 2.3-2.4l8.3 1.6V11c0-2.4-1.7-3.4-4.2-4.3L67.4.2c1.6 1.4 1.9 2 1.9 4.4v45.2c0 2.4-.4 4.1-2 5.2l23.3-7.1c2.4-.8 4.2-4.2 4.2-6.6v-7.9L86.5 35c-1.3 0-2.4-1.1-2.4-2.4z"/><path class="st0" d="M95.1 21l-7.6-1.4c-1 0-1.8.8-1.8 1.9v9.9c0 1 .8 1.9 1.8 1.9l7.6-1.4c1.2-.4 1.8-.8 1.8-1.9v-7c.1-1.2-.7-1.7-1.8-2zM67.2 4.5C67.2-.6 63 0 63 0S5.8 4.7 2.8 5.1 0 9.5 0 9.5v36.3c0 3.8 2.6 3.8 2.6 3.8L19.1 51l8.1-11.7s1.1-1.8 2.5-1.8 2.4 1.9 2.4 1.9l9.1 13.5s18.9 1.9 22.5 1.9c3.6 0 3.4-5 3.4-5s.1-40.2.1-45.3zM13 37.2c-3.7 0-6.7-4.6-6.7-10.3s3-10.3 6.7-10.3 6.7 4.6 6.7 10.3-3 10.3-6.7 10.3zm36.1 1.4c-4.7 0-8.4-5.2-8.4-11.7 0-6.5 3.8-11.7 8.4-11.7 4.7 0 8.4 5.2 8.4 11.7.1 6.5-3.7 11.7-8.4 11.7z"/></svg>