<svg id="Layer_1" xmlns="http://www.w3.org/2000/svg" viewBox="0 0 86 117"><style>.st0{fill:#363636}</style><path class="st0" d="M82.8 4H3.3C1.6 4 .1 5.4.1 7.2v46.4c0 1.8 1.4 3.2 3.2 3.2h79.5c1.8 0 3.2-1.4 3.2-3.2V7.2C86 5.4 84.6 4 82.8 4zM8.4 37.2h-.2C6.4 37.2 5 35.8 5 34v-7.3c0-1.8 1.4-3.2 3.2-3.2h.2v13.7zm61.2 15.2H13.3v-44h56.3v44zm8.8-17.8c-2.3 0-4.1-1.9-4.1-4.1s1.9-4.1 4.1-4.1c2.3 0 4.1 1.9 4.1 4.1s-1.8 4.1-4.1 4.1zM31.5 0h23.2v2.8H31.5zM46.6 64.9v-3h8v-2.8H31.5v2.8h8v35.2c-2.1.9-3.6 3.1-3.6 5.6V117h14.3v-14.3c0-2.5-1.5-4.6-3.6-5.6v-28h4.8l5.1 1.2v-6.7l-5.1 1.2h-4.8z"/></svg>