<svg id="Layer_1" xmlns="http://www.w3.org/2000/svg" viewBox="0 0 156 188"><style>.st0{fill:#fff}.st2{fill:#3a3a3a}</style><circle class="st0" cx="141.2" cy="68.9" r="14.8"/><path class="st0" d="M89.1 139.5L82 157.4l-22.8 14.9c-2.2 1.2-3.6 3.6-3.6 6.2 0 4 3.2 7.2 7.2 7.2 1.5 0 3-.5 4.1-1.3 3.8-2.4 22.4-14.1 25.5-15.9 3.5-2 4.1-5.1 4.1-5.1l4.9-16-5.8-2.6c-5.8-2.6-6.5-5.3-6.5-5.3z"/><path class="st0" d="M139.3 141.5s-1.2-3.8-4.6-5.2-18.1-7.8-18.1-7.8l15.4-25.6s3.8-9-.3-13.4-13.7-9.7-13.7-9.7h-7.5L126.3 53c3.4-5.7 1.4-13.1-4.2-16.4L72.6 7.4c-5.7-3.3-13-1.4-16.4 4.3L9.1 91.5c-3.4 5.7-1.4 13.1 4.2 16.4L62.7 137c5.7 3.4 13.1 1.4 16.4-4.2L102 93.9h8.1l-14.8 26.2s-5.1 9.2-.3 14.2c4.2 4.4 12.7 6.9 12.7 6.9l17.2 6.5L130 179c.5 3.4 3.5 6 7.1 6 4 0 7.2-3.2 7.2-7.2v-.6l-5-35.7zM18 100.2c-1.4-.8-1.9-2.7-1.1-4.1L64 16.3c.8-1.4 2.7-1.9 4.1-1.1L79.6 22l-50.1 85-11.5-6.8zm53.5 28.1c-.8 1.4-2.7 1.9-4.1 1.1l-30.1-17.8 50.1-85 30.1 17.8c1.4.8 1.9 2.7 1.1 4.1L100 79.8h-8.8L71.3 94.2c-.4.3-.9.6-1.2.9-1.4 1.3-2.4 3.2-2.4 5.3 0 4 3.2 7.2 7.2 7.2 1.5 0 3-.5 4.1-1.3l.1-.1c.2-.1.4-.3.5-.4l9.7-7.8-17.8 30.3z"/><path d="M49.2 5.9l-47 79.9c-3.4 5.7-1.4 13.1 4.2 16.4l49.4 29.1c5.7 3.4 13.1 1.4 16.4-4.2l47.1-79.8c3.4-5.7 1.4-13.1-4.2-16.4L65.7 1.7C60-1.7 52.6.3 49.2 5.9zM9.9 90.3L57 10.5c.8-1.4 2.7-1.9 4.1-1.1l11.5 6.8-50.1 85L11 94.5c-1.4-.9-1.9-2.8-1.1-4.2zm101.6-47.6l-47.1 79.8c-.8 1.4-2.7 1.9-4.1 1.1l-30.1-17.8 50.1-85 30.1 17.8c1.5.8 2 2.7 1.1 4.1z" fill="#f0c42e"/><g><circle class="st2" cx="135.2" cy="63.1" r="14.8"/><path class="st2" d="M81.9 133.8l-7.1 17.9L52 166.5c-2.2 1.2-3.6 3.6-3.6 6.2 0 4 3.2 7.2 7.2 7.2 1.5 0 3-.5 4.1-1.3 3.8-2.4 22.4-14.1 25.5-15.9 3.5-2 4.1-5.1 4.1-5.1l4.9-16-5.8-2.6c-5.8-2.6-6.5-5.2-6.5-5.2zM132.1 135.7s-1.2-3.8-4.6-5.2-18.1-7.8-18.1-7.8l15.4-25.6s3.8-9-.3-13.4-13.7-9.7-13.7-9.7H84L64.1 88.4c-.4.3-.9.6-1.2.9-1.4 1.3-2.4 3.2-2.4 5.3 0 4 3.2 7.2 7.2 7.2 1.5 0 3-.5 4.1-1.3l.1-.1c.2-.1.4-.3.5-.4l14.7-11.9H103l-14.8 26.2s-5.1 9.2-.3 14.2c4.2 4.4 12.7 6.9 12.7 6.9l17.2 6.5 5.1 31.3c.5 3.4 3.5 6 7.1 6 4 0 7.2-3.2 7.2-7.2v-.6l-5.1-35.7z"/></g></svg>