<svg id="Layer_1" xmlns="http://www.w3.org/2000/svg" viewBox="0 0 136 164"><style>.st0{fill:#fff}.st1{fill:#3a3a3a}.st3{fill:#f0c52e}</style><path class="st0" d="M93.1 38.8c8.1 0 14.9-5.5 16.9-13l5.5.8h.3c1.1 0 2-.8 2.1-1.8.2-1.2-.6-2.3-1.8-2.5l-5.5-.8v-.1-.5s-.5-6.5-1.1-9.2c-.6-2.7-2.5-3.3-2.5-3.3C97.2 6 87.2 5.8 84.6 5.8s-3.2 1.3-3.2 1.3l-3.2 5c-.1.1-.1.2-.2.4-1.5 2.6-2.4 5.6-2.4 8.8.1 9.6 7.9 17.5 17.5 17.5zM131.5 78.1l-26.7-2.2-9.2-21.1s-.5-2.8-6-8.5-16.8-3.4-16.8-3.4-23.9 4.5-31.8 6.3c-7.9 1.8-8.2 9.9-8.2 9.9l-.6 4.5L17 60.7c-.2 0-.4-.1-.6-.1-1.4 0-2.7 1-2.9 2.4l-7.4 38.2c-.3 1.6.8 3.2 2.4 3.5l51.2 9.9h.3c-.7.1-1.3 0-1.3 0l-9.4-1.8-3.1 17.2-23.6 20.4c-1.7 1.4-2.8 3.5-2.8 5.8 0 4.1 3.3 7.4 7.4 7.4 2 0 3.9-.8 5.2-2.1 0 0 27.7-22.1 29.6-23.6 1.8-1.5 2.8-3.9 2.8-3.9s4.5-13.9 5.8-16.9c.8-2 4.9-1.1 4.9-1.1l22.9 8.6 7.6 29.1c.1.6.2 1.2.5 1.8 1.1 2.7 3.8 4.7 6.9 4.7 4.1 0 7.4-3.3 7.4-7.4 0-.6-.1-1.2-.2-1.7-.8-5-4.6-27-5.6-31.8-1.1-5.4-4.6-6.9-4.6-6.9s-21.3-11.6-22.7-12.3c-1.4-.8-1.1-2.8-1.1-2.8L90.5 83l2.8 5.9s1.6 3.3 4.1 3.4l33.4.8c4.1 0 7.4-3.3 7.4-7.4.1-4.1-2.9-7.3-6.7-7.6zM60.1 62.8l-1.8 5.9 9.9 1.9L48 66.7l.5-2.5 11.6-1.4zm-2.2 45.5l-45.3-8.8 6.3-32.4 12.5 2.4-1.6 11.6-.6 4.4v.2c0 .3-.1.6-.1 1 0 4.1 3.3 7.4 7.4 7.4s7.4-3.3 7.4-7.4c0-.3 0-.6-.1-.9l2.9-13.2L64.1 76l-6.2 32.3zM25 17h38c1.1 0 2-.9 2-2s-.9-2-2-2H25c-1.1 0-2 .9-2 2s1 2 2 2zM38.1 23c-1.1 0-2 .9-2 2s.9 2 2 2h23c1.1 0 2-.9 2-2s-.9-2-2-2h-23z"/><path class="st1" d="M87.1 32.7c8.1 0 14.9-5.5 16.9-13l5.5.8h.3c1.1 0 2-.8 2.1-1.8.2-1.2-.6-2.3-1.8-2.5l-5.5-.8v-.1-.5s-.5-6.5-1.1-9.2c-.6-2.7-2.5-3.3-2.5-3.3C91.2 0 81.2-.2 78.6-.2s-3.2 1.3-3.2 1.3l-3.2 5c-.1.1-.1.2-.2.4-1.5 2.6-2.4 5.6-2.4 8.8 0 9.6 7.9 17.4 17.5 17.4zM125.5 72l-26.7-2.2-9.2-21.1s-.5-2.8-6-8.5-16.8-3.4-16.8-3.4-24 4.6-31.8 6.4c-7.9 1.8-8.2 9.9-8.2 9.9l-3.1 22-.6 4.4v.2c0 .3-.1.6-.1 1 0 4.1 3.3 7.4 7.4 7.4s7.4-3.3 7.4-7.4c0-.3 0-.6-.1-.9l4.7-21.6L54 56.8l-1.8 5.9 9.9 1.9c1.6.3 2.7 1.9 2.4 3.5l-7.4 38.2c-.3 1.4-1.5 2.4-2.9 2.4H54c-.7.1-1.3 0-1.3 0l-9.4-1.8-3.1 17.1-23.6 20.4c-1.7 1.4-2.8 3.5-2.8 5.8 0 4.1 3.3 7.4 7.4 7.4 2 0 3.9-.8 5.2-2.1 0 0 27.7-22.1 29.6-23.6 1.8-1.5 2.8-3.9 2.8-3.9s4.5-13.9 5.8-16.9c.8-2 4.9-1.1 4.9-1.1l22.9 8.6 7.6 29.1c.1.6.2 1.2.5 1.8 1.1 2.7 3.8 4.7 6.9 4.7 4.1 0 7.4-3.3 7.4-7.4 0-.6-.1-1.2-.2-1.7-.8-5-4.6-27-5.6-31.8-1.1-5.4-4.6-6.9-4.6-6.9S83.2 94.7 81.8 93.9c-1.4-.8-1.1-2.8-1.1-2.8l3.9-14.3 2.8 5.9s1.6 3.3 4.1 3.4l33.4.8c4.1 0 7.4-3.3 7.4-7.4 0-3.9-3-7.1-6.8-7.5z"/><path d="M54 108.7h.2c1.4 0 2.7-1 2.9-2.4l7.4-38.2c.3-1.6-.8-3.2-2.4-3.5L42 60.7l-1.3 5.9L58.1 70l-6.3 32.4-45.3-8.9 6.3-32.4 12.5 2.4.8-6L11 54.7c-.2 0-.4-.1-.6-.1-1.4 0-2.7 1-2.9 2.4L.1 95.3c-.3 1.6.8 3.2 2.4 3.5l51.2 9.9h.3z" fill="#f0c42e"/><path class="st3" d="M59 9c0 1.1-.9 2-2 2H19c-1.1 0-2-.9-2-2s.9-2 2-2h38c1.1 0 2 .9 2 2zM57 19c0 1.1-.9 2-2 2H32c-1.1 0-2-.9-2-2s.9-2 2-2h23c1.1 0 2 .9 2 2z"/></svg>