<svg id="Layer_1" xmlns="http://www.w3.org/2000/svg" viewBox="0 0 171 195"><style>.st0{fill:#fff}.st1{fill:#3a3a3a}</style><path class="st0" d="M77.7 174.6c-.1-.1-10.5-13-12.6-15.8-1.3-1.7-3.3-2.7-5.6-2.7-2.6 0-4.8 1.2-5.5 1.6l-5.5 2.7c-1.8-.5-5.6-1.9-9.3-6.3-3.3-3.8-3.3-9-3.1-11.1l5.9-5.9c3.1-2.7 2.5-6.5 1.2-8.4l-.2-.3s-12.9-16.2-14.7-18.5c-1-1.2-2.5-1.9-4.2-1.9-2.8 0-5.9 2-6.8 2.6C6.6 118.4 5.9 125.2 5.8 126v.4l.1.4c6.4 35.7 26 51.1 35.5 58.5 1.1.9 2.1 1.7 2.9 2.3 6.6 5.7 13.8 6.4 16.6 6.4 2.4 0 4.5-.4 6.1-1.2 4.4-2.1 9.4-8 10.9-9.8 2.5-3.1 1.3-6.6.2-8.2l-.4-.2zm-13.9 11.9c-.5.2-1.6.5-3.1.5-1.6 0-7-.3-11.9-4.6-.9-.7-1.9-1.6-3.1-2.5-8.7-6.8-26.7-21-32.8-53.7.3-1 1.8-4.9 8.6-9.8.7-.5 1.5-.9 2.1-1.1 2.8 3.6 11.4 14.4 13.5 17l-7.5 7.5-.2 1.1c-.1.4-1.9 10.4 4.5 17.9 6.3 7.3 13.2 8.7 14.6 8.9l1.1.2 7.6-3.8.2-.1c.3-.2 1.3-.6 2.1-.6h.1c2.1 2.8 11.1 13.9 12.5 15.6-2.6 2.9-6.2 6.5-8.3 7.5zM137.9 65.8c5.5-5.2 7.2-12 5-20.8-.2-.9-.8-1.5-1.7-1.8-.8-.3-1.8-.1-2.4.5l-8.2 7.4c-1.4-.8-3.7-2.5-4.5-5.3l6.8-6.7c.9-.9 1-2.5.1-3.4l-.2-.2c-.2-.2-.4-.4-.7-.5-.2-.1-4-2.1-8.8-2.1-4.7 0-8.9 1.9-12 5.6-6 6.9-4.6 15-3.5 18.5l-3.5 3.5L94 51.1l4.7-3.3-20-13.7-10.6 10.6 13.7 20 3.3-4.7 9.2 10.3-3.3 3.3c-1.5-.5-3.9-1.1-6.7-1.1-5.4 0-10.2 2.2-14 6.4-.3.3-6.6 8.2-2.8 18.6.3.8.9 1.4 1.7 1.6.8.2 1.6 0 2.3-.5l8.3-7.3c1.3.6 3.6 2.1 4.7 5.9l-7.4 7.5c-.6.6-.9 1.6-.6 2.4s1 1.5 1.8 1.7c.1 0 2.7.6 6.2.6 6.8 0 12.1-2.3 15.2-6.6 3.4-4.6 4.1-9.4 4-13.1l16.2 16.2.2.2c1.5 1.3 4.3 2.7 7.5 2.7 2.2 0 4.6-.7 6.9-2.8l5.5-5.5.1-.1c5-5.4 2.3-11.7.1-14.3l-16.9-17c1 .1 2.1.2 3.3.2 4.9.2 8.7-1.1 11.3-3.5zM84.6 52l-2.7 3.9-7.3-10.6 4.7-4.7 10.6 7.3-3.9 2.7 14.8 13.3-4.2 4.1 1.2-1.2L84.6 52zm13.5 33.5c.1.3 2.6 7.7-2.3 14.5-2.8 3.8-7.7 4.5-11.4 4.5l4.7-4.8c.6-.6.8-1.4.7-2.2C88 87.4 80 86.1 79.7 86c-.7-.1-1.5.1-2 .6L71.5 92c-.5-5.6 2.4-9.5 2.8-9.9 2.7-3 6.1-4.6 10.1-4.6 3.5 0 6.2 1.2 6.2 1.2 1 .4 2.1.2 2.8-.5l19-19c.7-.7.9-1.8.5-2.8 0-.1-3.5-8.3 2.2-14.9 2.2-2.5 5-3.8 8.2-3.8 1.2 0 2.4.2 3.4.4l-5 5c-.6.5-.8 1.3-.7 2.1 1 8.3 9 11.1 9.3 11.2.9.3 1.8.1 2.5-.5l6-5.4c.4 4.9-1 8.6-4.3 11.6-2 1.9-5.4 2.3-7.8 2.3-3.7 0-7-.9-7-.9-.9-.2-1.8 0-2.4.7L98.7 82.9c-.7.7-.9 1.7-.6 2.6zm5.5 1.8zm-.2-1.1v.2c.1-.1 0-.1 0-.2zm33.1 10.9l-5.5 5.5c-3.2 3-6.9.4-7.6-.1l-18.6-18.6 14.9-15.1-2 2.1 18.7 18.7c.5.5 3.1 4.2.1 7.5zM121.3 69zm-.8-.1z"/><path class="st0" d="M104.2 6c-36.4 0-66 29.5-66 65.9 0 33.5 25 61.2 57.4 65.4v26.2s57.4-21.2 72-73.6c.1-.3.1-.5.2-.8.1-.4.2-.8.3-1.3.1-.3.1-.5.2-.8 1.1-4.9 1.8-9.9 1.8-15.1 0-36.4-29.5-65.9-65.9-65.9zm57.3 79.4v.2c0 .2-.1.3-.1.5l-.3 1.2-.1.4c0 .1-.1.2-.1.3-5.6 20.1-18.5 37.7-38.5 52.4-7.4 5.4-14.4 9.5-19.7 12.2v-21.5l-6.1-.8c-29.2-3.8-51.3-28.9-51.3-58.4 0-32.5 26.4-58.9 58.9-58.9s58.9 26.4 58.9 58.9c0 4.5-.5 9.1-1.6 13.5z"/><path class="st1" d="M54.6 188c-2.8 0-10-.6-16.6-6.4-.7-.6-1.7-1.4-2.9-2.3-9.4-7.4-29-22.8-35.5-58.5l-.1-.4v-.4c0-.8.7-7.6 11.6-15.3.9-.6 3.9-2.6 6.8-2.6 1.7 0 3.2.7 4.2 1.9 1.8 2.3 14.7 18.5 14.7 18.5l.2.3c1.2 1.9 1.8 5.7-1.2 8.4l-5.9 5.9c-.2 2.1-.2 7.3 3.1 11.1 3.7 4.3 7.5 5.8 9.3 6.3l5.5-2.7c.7-.4 3-1.6 5.5-1.6 2.3 0 4.3 1 5.6 2.7 2.1 2.8 12.5 15.6 12.6 15.8l.2.2c1.1 1.6 2.3 5.1-.2 8.2-1.4 1.8-6.5 7.7-10.9 9.8-1.5.7-3.6 1.1-6 1.1zM6.7 120.1c6.1 32.7 24.1 46.9 32.8 53.7 1.2 1 2.3 1.8 3.1 2.5 4.9 4.3 10.4 4.6 11.9 4.6s2.6-.3 3.1-.5c2.1-1 5.7-4.6 8.3-7.7-1.4-1.7-10.4-12.8-12.5-15.6h-.1c-.7 0-1.8.5-2.1.6l-.2.1-7.6 3.8-1.1-.2c-1.3-.2-8.3-1.5-14.6-8.9-6.4-7.5-4.6-17.5-4.5-17.9l.2-1.1 7.5-7.5c-2.1-2.6-10.7-13.5-13.5-17-.6.2-1.5.7-2.1 1.1-6.8 5.1-8.3 9.1-8.6 10z"/><path d="M78.4 103.5c-3.5 0-6.1-.6-6.2-.6-.9-.2-1.6-.9-1.8-1.7s0-1.8.6-2.4l7.4-7.5c-1-3.8-3.3-5.4-4.7-5.9l-8.3 7.3c-.6.5-1.5.7-2.3.5-.8-.2-1.4-.8-1.7-1.6-3.8-10.5 2.5-18.3 2.8-18.6 3.7-4.2 8.5-6.4 14-6.4 2.8 0 5.2.6 6.7 1.1l16.8-16.8c-1-3.4-2.5-11.5 3.5-18.5 3.1-3.6 7.3-5.6 12-5.6 4.8 0 8.7 2 8.8 2.1.3.1.5.3.7.5l.2.2c.9 1 .8 2.5-.1 3.4l-6.8 6.7c.8 2.9 3 4.5 4.5 5.3l8.2-7.4c.7-.6 1.6-.8 2.4-.5.8.3 1.5.9 1.7 1.8 2.1 8.8.5 15.6-5 20.8-2.6 2.4-6.4 3.6-11.2 3.6-2.8 0-5.3-.4-6.8-.7L97.1 79.4c.7 3.2 1.6 10.6-3.4 17.6-3.1 4.3-8.4 6.5-15.3 6.5zm-.2-5c3.7 0 8.6-.7 11.4-4.5 4.9-6.8 2.4-14.2 2.3-14.5-.3-.9-.1-1.9.6-2.6L111 58.2c.6-.6 1.6-.9 2.4-.7 0 0 3.3.9 7 .9 2.5 0 5.8-.4 7.8-2.3 3.3-3.1 4.7-6.8 4.3-11.6l-6 5.4c-.7.6-1.6.8-2.5.5-.3-.1-8.3-2.9-9.3-11.2-.1-.8.2-1.5.7-2.1l5-5c-1-.2-2.1-.4-3.4-.4-3.3 0-6 1.3-8.2 3.8-5.7 6.5-2.2 14.8-2.2 14.9.4.9.2 2-.5 2.8l-19 19c-.7.7-1.9.9-2.8.5 0 0-2.7-1.2-6.2-1.2-4 0-7.4 1.5-10.1 4.6-.3.4-3.3 4.4-2.8 9.9l6.2-5.4c.6-.5 1.3-.7 2-.6.3.1 8.3 1.4 10.1 11.5.1.8-.1 1.6-.7 2.2l-4.6 4.8z" fill="#f0c42e"/><g><path class="st1" d="M78.9 54l9.3 10.3 3.5-3.5L78.4 46l-2.7 3.9-7.3-10.6 4.7-4.7 10.7 7.2-4 2.8 14.8 13.3 3.5-3.6-10.2-9.2 4.7-3.3-20.1-13.7-10.6 10.6 13.8 20zM117.1 63.3c-1.4-.1-2.6-.4-3.5-.5l-2 2.1 18.7 18.7c.5.6 3.1 4.3.1 7.6l-5.5 5.5c-3.2 3-6.9.4-7.6-.1L98.7 77.8l-1.6 1.6c.2 1.1.5 2.6.6 4.5l16.2 16.2.2.2c1.5 1.3 4.3 2.7 7.4 2.7 2.2 0 4.6-.7 6.9-2.8l5.5-5.5.1-.1c5-5.4 2.3-11.7.1-14.3l-17-17z"/></g><path class="st1" d="M98 7c32.5 0 58.9 26.4 58.9 58.9 0 4.5-.5 9.1-1.6 13.5v.1c0 .2-.1.3-.1.5l-.3 1.2-.1.4c0 .1-.1.2-.1.3-5.6 20.1-18.5 37.7-38.5 52.4-7.4 5.4-14.4 9.5-19.7 12.2V125l-6.1-.8c-29.2-3.8-51.3-28.9-51.3-58.4C39.1 33.4 65.5 7 98 7m0-7C61.6 0 32.1 29.5 32.1 65.9c0 33.5 25 61.2 57.4 65.4v26.2s57.4-21.2 72-73.6c.1-.3.1-.5.2-.8.1-.4.2-.8.3-1.3.1-.3.1-.5.2-.8 1.1-4.9 1.8-9.9 1.8-15.1C163.9 29.5 134.4 0 98 0z"/></svg>